<!-- FixPoints Logo - Based on the provided image -->
<svg width="400" height="100" viewBox="0 0 400 100" xmlns="http://www.w3.org/2000/svg">
  <!-- Location pin with wrench -->
  <g transform="translate(10, 10)">
    <!-- Location pin background -->
    <path d="M40 10 C55 10, 65 20, 65 35 C65 50, 40 70, 40 70 S15 50, 15 35 C15 20, 25 10, 40 10 Z" fill="#4285f4"/>
    
    <!-- Wrench icon inside pin -->
    <g transform="translate(28, 25)" fill="white">
      <path d="M18 7l-1.41-1.41-6.34 6.34 1.41 1.41L18 7zm4.24-1.41L23.66 7 23 6.34l-1.41 1.41 1.41 1.41.71-.71-1.41-1.41zm-9.54 9.54L11.29 16.54 9.88 15.13l1.41-1.41 1.41 1.41zm7.13-7.13L21.24 9.41 19.83 8l1.41-1.41L22.65 7.95z" transform="scale(0.8)"/>
    </g>
  </g>
  
  <!-- FixPoints Text -->
  <g transform="translate(90, 20)">
    <!-- Fix -->
    <text x="0" y="35" font-family="Arial, Helvetica, sans-serif" font-size="32" font-weight="bold" fill="#4a5568">Fix</text>
    <!-- Point -->
    <text x="80" y="35" font-family="Arial, Helvetica, sans-serif" font-size="32" font-weight="bold" fill="#4a5568">Point</text>
  </g>
</svg>