<!-- Horizontal logo with text -->
<svg width="200" height="60" viewBox="0 0 200 60" xmlns="http://www.w3.org/2000/svg">
  <!-- Logo icon -->
  <circle cx="30" cy="30" r="25" fill="#2563eb" stroke="#1d4ed8" stroke-width="2"/>
  
  <!-- Car icon -->
  <g fill="white" transform="translate(12, 18)">
    <path d="M31.84 6.02C31.44 4.84 30.32 4 29 4H11c-1.32 0-2.44.84-2.84 2.02L6 14v16c0 1.1.9 2 2 2h2c1.1 0 2-.9 2-2v-2h16v2c0 1.1.9 2 2 2h2c1.1 0 2-.9 2-2V14l-2.16-7.98zM13 26c-1.66 0-3-1.34-3-3s1.34-3 3-3 3 1.34 3 3-1.34 3-3 3zm14 0c-1.66 0-3-1.34-3-3s1.34-3 3-3 3 1.34 3 3-1.34 3-3 3zM10 16l2-6h16l2 6H10z" transform="scale(0.7)"/>
  </g>
  
  <!-- Text -->
  <text x="65" y="25" font-family="Arial, sans-serif" font-size="18" font-weight="bold" fill="#1f2937">CarService</text>
  <text x="65" y="45" font-family="Arial, sans-serif" font-size="14" fill="#6b7280">FINDER</text>
</svg>