<!-- Logo icon only -->
<svg width="80" height="80" viewBox="0 0 80 80" xmlns="http://www.w3.org/2000/svg">
  <!-- Background circle -->
  <circle cx="40" cy="40" r="35" fill="#2563eb" stroke="#1d4ed8" stroke-width="3"/>
  
  <!-- Car icon -->
  <g fill="white" transform="translate(15, 25)">
    <path d="M42.92 8.01C42.72 7.42 42.16 7 41.5 7h-33c-.66 0-1.22.42-1.42 1.01L5 16v16c0 .55.45 1 1 1h3c.55 0 1-.45 1-1v-2h24v2c0 .55.45 1 1 1h3c.55 0 1-.45 1-1V16l-6.08-8.99zM14.5 28c-.83 0-1.5-.67-1.5-1.5S13.67 25 14.5 25s1.5.67 1.5 1.5S15.33 28 14.5 28zm15 0c-.83 0-1.5-.67-1.5-1.5s.67-1.5 1.5-1.5 1.5.67 1.5 1.5-.67 1.5-1.5 1.5zM9 18l3-6h20l3 6H9z"/>
  </g>
  
  <!-- Service indicators -->
  <circle cx="20" cy="65" r="2.5" fill="#fbbf24"/>
  <circle cx="40" cy="65" r="2.5" fill="#fbbf24"/>
  <circle cx="60" cy="65" r="2.5" fill="#fbbf24"/>
</svg>